<?xml version="1.0" encoding="UTF-8"?>
<svg id="_레이어_1" data-name="레이어 1" xmlns="http://www.w3.org/2000/svg" viewBox="0 0 113.11 108.51">
  <defs>
    <style>
      .cls-1 {
        fill: #fff518;
      }
    </style>
  </defs>
  <circle class="cls-1" cx="20.32" cy="61.95" r="10.35"/>
  <circle class="cls-1" cx="77.67" cy="61.95" r="10.35"/>
  <path class="cls-1" d="M25.01,22.71c-7.91,0-14.32-6.41-14.32-14.32"/>
  <path class="cls-1" d="M25.01,26.28c-9.87,0-17.89-8.03-17.89-17.89,0-1.97,1.6-3.57,3.57-3.57s3.57,1.6,3.57,3.57c0,5.93,4.83,10.76,10.76,10.76,1.97,0,3.57,1.6,3.57,3.57s-1.6,3.57-3.57,3.57Z"/>
  <path class="cls-1" d="M76.57,22.71c-7.91,0-14.32-6.41-14.32-14.32"/>
  <path class="cls-1" d="M76.57,26.28c-9.87,0-17.89-8.03-17.89-17.89,0-1.97,1.6-3.57,3.57-3.57s3.57,1.6,3.57,3.57c0,5.93,4.83,10.76,10.76,10.76,1.97,0,3.57,1.6,3.57,3.57s-1.6,3.57-3.57,3.57Z"/>
  <g>
    <path class="cls-1" d="M7.98,79.06v-36.31c0-14.95,8.5-24.21,22.9-24.21s22.9,9.26,22.9,24.21v36.31c0,14.95-8.5,24.1-22.9,24.1s-22.9-9.16-22.9-24.1ZM44.88,79.06v-36.73c0-9.68-5.2-15.37-14-15.37s-14,5.68-14,15.37v36.73c0,10,5.4,15.68,14,15.68s14-5.68,14-15.68Z"/>
    <path class="cls-1" d="M30.88,103.69c-14.67,0-23.42-9.21-23.42-24.63v-36.31c0-15.49,8.76-24.74,23.42-24.74s23.42,9.25,23.42,24.74v36.31c0,15.42-8.76,24.63-23.42,24.63ZM30.88,19.06c-14.01,0-22.37,8.85-22.37,23.68v36.31c0,14.76,8.36,23.58,22.37,23.58s22.37-8.81,22.37-23.58v-36.31c0-14.83-8.36-23.68-22.37-23.68ZM30.88,95.27c-9.09,0-14.52-6.06-14.52-16.21v-36.73c0-9.8,5.57-15.89,14.52-15.89s14.53,5.94,14.53,15.89v36.73c0,10.15-5.43,16.21-14.53,16.21ZM30.88,27.49c-8.44,0-13.47,5.55-13.47,14.84v36.73c0,9.49,5.04,15.16,13.47,15.16s13.47-5.52,13.47-15.16v-36.73c0-9.43-4.91-14.84-13.47-14.84Z"/>
  </g>
  <g>
    <path class="cls-1" d="M63.07,80.01v-38.21c0-14.42,8.1-23.26,21.9-23.26,10.58,0,17.91,6,20.13,16.06.59,2.68-1.52,5.2-4.26,5.2h0c-2.03,0-3.73-1.42-4.23-3.38-1.56-6.03-5.8-9.46-11.93-9.46-7.8,0-12.6,5.16-12.6,14v38.84c0,9.37,4.9,14.84,13.1,14.84,5.69,0,9.87-3.27,11.49-8.78.55-1.88,2.35-3.12,4.31-3.12h0c2.98,0,5.14,2.86,4.32,5.73-2.65,9.28-10.06,14.69-20.22,14.69-13.8,0-22-8.84-22-23.16Z"/>
    <path class="cls-1" d="M85.07,103.69c-13.89,0-22.52-9.07-22.52-23.68v-38.21c0-14.9,8.38-23.79,22.42-23.79,10.81,0,18.33,6,20.64,16.47.31,1.41-.04,2.87-.95,4-.94,1.17-2.33,1.84-3.83,1.84-2.22,0-4.17-1.55-4.74-3.77-1.51-5.85-5.57-9.07-11.42-9.07-7.56,0-12.07,5.04-12.07,13.47v38.84c0,9.1,4.58,14.32,12.57,14.32,5.41,0,9.42-3.06,10.98-8.4.6-2.06,2.58-3.5,4.81-3.5,1.59,0,3.05.73,4.01,2,.96,1.27,1.26,2.87.82,4.4-2.74,9.58-10.29,15.07-20.72,15.07ZM84.97,19.06c-13.38,0-21.37,8.5-21.37,22.74v38.21c0,14.17,8.03,22.63,21.47,22.63,9.93,0,17.11-5.22,19.71-14.31.34-1.21.11-2.47-.65-3.48-.76-1-1.91-1.58-3.17-1.58-1.76,0-3.33,1.13-3.8,2.74-1.71,5.82-6.08,9.15-11.99,9.15-8.53,0-13.62-5.75-13.62-15.37v-38.84c0-9.1,4.91-14.53,13.12-14.53,6.29,0,10.83,3.59,12.44,9.86.45,1.76,1.99,2.98,3.72,2.98,1.17,0,2.27-.53,3.01-1.44.71-.89.98-2.02.74-3.12-2.19-9.94-9.34-15.65-19.61-15.65Z"/>
  </g>
</svg>