<?xml version="1.0" encoding="UTF-8"?>
<svg id="_레이어_1" data-name="레이어 1" xmlns="http://www.w3.org/2000/svg" viewBox="0 0 389.41 110.3">
  <defs>
    <style>
      .cls-1 {
        fill: #fff518;
      }

      .cls-2 {
        fill: #20323b;
      }
    </style>
  </defs>
  <g>
    <circle class="cls-1" cx="79.33" cy="62.31" r="9.83"/>
    <circle class="cls-1" cx="79.33" cy="62.31" r="9.83"/>
  </g>
  <g>
    <circle class="cls-1" cx="133.83" cy="62.31" r="9.83"/>
    <circle class="cls-1" cx="133.83" cy="62.31" r="9.83"/>
  </g>
  <g>
    <path class="cls-1" d="M83.79,25.03c-7.52,0-13.61-6.09-13.61-13.61"/>
    <path class="cls-1" d="M83.79,28.42c-9.37,0-17-7.63-17-17,0-1.87,1.52-3.39,3.39-3.39s3.39,1.52,3.39,3.39c0,5.64,4.58,10.22,10.22,10.22,1.87,0,3.39,1.52,3.39,3.39s-1.52,3.39-3.39,3.39Z"/>
  </g>
  <g>
    <path class="cls-1" d="M132.77,25.03c-7.52,0-13.61-6.09-13.61-13.61"/>
    <path class="cls-1" d="M132.77,28.42c-9.37,0-17-7.63-17-17,0-1.87,1.52-3.39,3.39-3.39s3.39,1.52,3.39,3.39c0,5.64,4.59,10.22,10.22,10.22,1.87,0,3.39,1.52,3.39,3.39s-1.52,3.39-3.39,3.39Z"/>
  </g>
  <g>
    <path class="cls-2" d="M22.92,100.07c-2.18,0-3.95-1.77-3.95-3.95V25.06c0-1.6.95-2.6,2.47-2.6h34.15c2.18,0,3.95,1.77,3.95,3.95v.1c0,2.18-1.77,3.95-3.95,3.95h-26.72c-.64,0-1.16.52-1.16,1.16v25.39c0,.64.52,1.16,1.16,1.16h18.55c2.18,0,3.95,1.77,3.95,3.95h0c0,2.18-1.77,3.95-3.95,3.95h-18.55c-.64,0-1.16.52-1.16,1.16v28.89c0,2.18-1.77,3.95-3.95,3.95h-.84Z"/>
    <path class="cls-2" d="M23.76,100.57h-.84c-2.45,0-4.45-2-4.45-4.45V25.06c0-1.88,1.17-3.1,2.97-3.1h34.15c2.45,0,4.45,2,4.45,4.45s-2,4.55-4.45,4.55h-26.72c-.36,0-.66.29-.66.66v25.39c0,.36.29.66.66.66h18.55c2.45,0,4.45,2,4.45,4.45s-2,4.45-4.45,4.45h-18.55c-.36,0-.66.29-.66.66v28.89c0,2.45-2,4.45-4.45,4.45ZM21.44,22.96c-1.25,0-1.97.77-1.97,2.1v71.05c0,1.9,1.55,3.45,3.45,3.45h.84c1.9,0,3.45-1.55,3.45-3.45v-28.89c0-.91.74-1.66,1.66-1.66h18.55c1.9,0,3.45-1.55,3.45-3.45s-1.55-3.45-3.45-3.45h-18.55c-.91,0-1.66-.74-1.66-1.66v-25.39c0-.91.74-1.66,1.66-1.66h26.72c1.9,0,3.45-1.55,3.45-3.45,0-2-1.55-3.55-3.45-3.55H21.44Z"/>
  </g>
  <g>
    <path class="cls-1" d="M67.61,78.57v-34.5c0-14.2,8.08-23,21.75-23s21.76,8.8,21.76,23v34.5c0,14.2-8.08,22.9-21.76,22.9s-21.75-8.7-21.75-22.9ZM102.67,78.57v-34.9c0-9.2-4.94-14.6-13.3-14.6s-13.3,5.4-13.3,14.6v34.9c0,9.5,5.13,14.9,13.3,14.9s13.3-5.4,13.3-14.9Z"/>
    <path class="cls-1" d="M89.36,101.97c-13.94,0-22.25-8.75-22.25-23.4v-34.5c0-14.72,8.32-23.5,22.25-23.5s22.26,8.79,22.26,23.5v34.5c0,14.65-8.32,23.4-22.26,23.4ZM89.36,21.56c-13.31,0-21.25,8.41-21.25,22.5v34.5c0,14.03,7.95,22.4,21.25,22.4s21.26-8.37,21.26-22.4v-34.5c0-14.09-7.95-22.5-21.26-22.5ZM89.36,93.97c-8.64,0-13.8-5.76-13.8-15.4v-34.9c0-9.31,5.29-15.1,13.8-15.1s13.8,5.65,13.8,15.1v34.9c0,9.64-5.16,15.4-13.8,15.4ZM89.36,29.56c-8.01,0-12.8,5.27-12.8,14.1v34.9c0,9.02,4.79,14.4,12.8,14.4s12.8-5.25,12.8-14.4v-34.9c0-8.96-4.67-14.1-12.8-14.1Z"/>
  </g>
  <g>
    <path class="cls-1" d="M119.95,79.47v-36.3c0-13.7,7.7-22.1,20.81-22.1,10.06,0,17.02,5.7,19.12,15.26.56,2.54-1.44,4.94-4.05,4.94h0c-1.93,0-3.54-1.34-4.02-3.21-1.48-5.73-5.51-8.99-11.34-8.99-7.41,0-11.97,4.9-11.97,13.3v36.9c0,8.9,4.65,14.1,12.44,14.1,5.41,0,9.38-3.11,10.91-8.34.52-1.79,2.23-2.96,4.09-2.96h0c2.83,0,4.88,2.72,4.11,5.44-2.52,8.81-9.56,13.96-19.21,13.96-13.11,0-20.9-8.4-20.9-22Z"/>
    <path class="cls-1" d="M140.85,101.97c-13.2,0-21.4-8.62-21.4-22.5v-36.3c0-14.15,7.96-22.6,21.31-22.6,10.27,0,17.42,5.71,19.61,15.65.29,1.34-.03,2.72-.9,3.8-.89,1.11-2.22,1.74-3.64,1.74-2.11,0-3.96-1.47-4.51-3.58-1.43-5.56-5.29-8.62-10.85-8.62-7.18,0-11.47,4.79-11.47,12.8v36.9c0,8.64,4.35,13.6,11.94,13.6,5.14,0,8.95-2.91,10.44-7.98.57-1.96,2.45-3.32,4.57-3.32,1.51,0,2.9.69,3.81,1.9.91,1.21,1.19,2.73.78,4.18-2.6,9.1-9.77,14.32-19.69,14.32ZM140.76,21.56c-12.71,0-20.31,8.08-20.31,21.6v36.3c0,13.46,7.63,21.5,20.4,21.5,9.43,0,16.26-4.96,18.73-13.6.33-1.15.1-2.35-.62-3.3-.72-.95-1.82-1.5-3.01-1.5-1.68,0-3.16,1.07-3.61,2.6-1.62,5.53-5.78,8.7-11.4,8.7-8.11,0-12.94-5.46-12.94-14.6v-36.9c0-8.64,4.66-13.8,12.47-13.8,5.98,0,10.29,3.41,11.82,9.37.43,1.67,1.89,2.83,3.54,2.83,1.11,0,2.16-.5,2.86-1.37.68-.84.93-1.92.7-2.96-2.08-9.45-8.88-14.87-18.64-14.87Z"/>
  </g>
  <g>
    <path class="cls-2" d="M172.01,80.87V26.74c0-2.36,1.91-4.27,4.27-4.27h0c2.36,0,4.27,1.91,4.27,4.27v53.93c0,8.2,4.46,13,11.97,13s11.97-4.8,11.97-13V26.74c0-2.36,1.91-4.27,4.27-4.27h0c2.36,0,4.27,1.91,4.27,4.27v54.23c0,12.9-7.6,20.8-20.52,20.8s-20.52-7.9-20.52-20.9Z"/>
    <path class="cls-2" d="M192.53,102.27c-13.16,0-21.02-8-21.02-21.4V26.74c0-2.63,2.14-4.77,4.77-4.77s4.77,2.14,4.77,4.77v53.93c0,7.94,4.18,12.5,11.47,12.5s11.47-4.56,11.47-12.5V26.74c0-2.63,2.14-4.77,4.77-4.77s4.77,2.14,4.77,4.77v54.23c0,13.34-7.86,21.3-21.02,21.3ZM176.29,22.96c-2.08,0-3.77,1.69-3.77,3.77v54.13c0,12.77,7.48,20.4,20.02,20.4s20.02-7.59,20.02-20.3V26.74c0-2.08-1.69-3.77-3.77-3.77s-3.77,1.69-3.77,3.77v53.93c0,8.45-4.66,13.5-12.47,13.5s-12.47-5.05-12.47-13.5V26.74c0-2.08-1.69-3.77-3.77-3.77Z"/>
  </g>
  <g>
    <path class="cls-2" d="M227.79,80.91h0c2.04-.02,3.81,1.35,4.34,3.31,1.59,5.86,6.18,9.25,12.55,9.25,7.6,0,12.54-4.6,12.54-12s-4.46-12.4-15.87-18.6c-11.02-5.6-16.72-13-16.72-21.6,0-12.1,7.7-19.9,19.95-19.9,8.87,0,15.73,4.68,18.61,12.59,1.06,2.92-1.06,6.02-4.16,6.02h-.08c-1.86,0-3.55-1.15-4.16-2.9-1.65-4.71-5.27-7.4-10.3-7.4-6.84,0-11.12,4-11.12,10.9,0,6.1,3.99,10.4,15.29,16.3,11.5,6,17.29,13.9,17.29,23.8,0,12.8-8.17,21-21.38,21-10.56,0-18.09-5.53-21-14.99-.87-2.85,1.22-5.74,4.2-5.77Z"/>
    <path class="cls-2" d="M244.59,102.17c-10.65,0-18.48-5.59-21.48-15.34-.47-1.51-.2-3.11.74-4.39.93-1.27,2.36-2.01,3.94-2.03h0c2.27.01,4.23,1.49,4.83,3.68,1.53,5.64,5.93,8.88,12.07,8.88,7.43,0,12.04-4.41,12.04-11.5s-4.08-11.9-15.6-18.16c-11.1-5.64-16.98-13.27-16.98-22.04,0-12.39,8.03-20.4,20.45-20.4,9,0,16.13,4.83,19.08,12.91.56,1.54.34,3.25-.6,4.59-.93,1.33-2.41,2.1-4.04,2.1-2.18,0-4.04-1.3-4.72-3.24-1.59-4.55-5.08-7.06-9.83-7.06-6.65,0-10.62,3.89-10.62,10.4,0,5.92,3.93,10.07,15.03,15.86,11.65,6.08,17.56,14.24,17.56,24.24,0,13.26-8.38,21.5-21.88,21.5ZM227.84,81.41h-.04c-1.25.01-2.4.6-3.14,1.62-.75,1.02-.96,2.3-.59,3.51,2.86,9.3,10.34,14.63,20.52,14.63,12.88,0,20.88-7.86,20.88-20.5,0-9.6-5.73-17.46-17.02-23.36-11.49-6-15.56-10.38-15.56-16.75,0-7.03,4.45-11.4,11.62-11.4,5.2,0,9.03,2.75,10.77,7.73.54,1.54,2.02,2.57,3.69,2.57,1.38,0,2.55-.61,3.3-1.67.76-1.08.93-2.42.48-3.67-2.84-7.79-9.45-12.26-18.14-12.26-12,0-19.45,7.43-19.45,19.4,0,8.37,5.69,15.69,16.45,21.16,11.92,6.48,16.14,11.46,16.14,19.05s-5.12,12.5-13.04,12.5c-6.63,0-11.38-3.5-13.04-9.61-.47-1.74-2.04-2.95-3.81-2.95Z"/>
  </g>
  <g>
    <path class="cls-2" d="M291.62,95.98V31.62c0-.64-.52-1.16-1.16-1.16h-14.03c-2.21,0-4-1.79-4-4h0c0-2.21,1.79-4,4-4h38.55c2.21,0,4,1.79,4,4h0c0,2.21-1.79,4-4,4h-14.03c-.64,0-1.16.52-1.16,1.16v64.36c0,2.26-1.83,4.08-4.08,4.08h0c-2.26,0-4.08-1.83-4.08-4.08Z"/>
    <path class="cls-2" d="M295.7,100.57c-2.53,0-4.58-2.06-4.58-4.58V31.62c0-.36-.29-.66-.66-.66h-14.03c-2.48,0-4.5-2.02-4.5-4.5s2.02-4.5,4.5-4.5h38.55c2.48,0,4.5,2.02,4.5,4.5s-2.02,4.5-4.5,4.5h-14.03c-.36,0-.66.29-.66.66v64.36c0,2.53-2.06,4.58-4.58,4.58ZM276.43,22.96c-1.93,0-3.5,1.57-3.5,3.5s1.57,3.5,3.5,3.5h14.03c.91,0,1.66.74,1.66,1.66v64.36c0,1.98,1.61,3.58,3.58,3.58s3.58-1.61,3.58-3.58V31.62c0-.91.74-1.66,1.66-1.66h14.03c1.93,0,3.5-1.57,3.5-3.5s-1.57-3.5-3.5-3.5h-38.55Z"/>
  </g>
  <g>
    <path class="cls-2" d="M343.11,95.94v-28.51c0-.17-.04-.34-.11-.49l-18.33-38.86c-1.23-2.61.67-5.61,3.56-5.61h0c1.54,0,2.95.9,3.58,2.31l14.33,31.66s.02.04.02.06h0c.38.97,1.74.99,2.15.03l.03-.06,14.53-31.71c.64-1.4,2.04-2.29,3.57-2.29h.07c2.89,0,4.8,3.02,3.55,5.63l-18.57,38.84c-.07.16-.11.33-.11.5v28.51c0,2.28-1.85,4.13-4.13,4.13h0c-2.28,0-4.13-1.85-4.13-4.13Z"/>
    <path class="cls-2" d="M347.24,100.57c-2.55,0-4.63-2.08-4.63-4.63v-28.51c0-.1-.02-.19-.06-.28l-18.33-38.86c-.65-1.38-.55-2.97.27-4.26.82-1.29,2.22-2.06,3.74-2.06,1.74,0,3.32,1.02,4.04,2.6l14.33,31.66c.18.47.54.5.64.51.09,0,.46-.02.62-.4l14.56-31.78c.72-1.57,2.3-2.59,4.03-2.59,1.6,0,3.01.77,3.82,2.07.82,1.29.91,2.89.25,4.27l-18.57,38.84c-.04.09-.06.19-.06.28v28.51c0,2.55-2.08,4.63-4.63,4.63ZM328.22,22.96c-1.18,0-2.27.6-2.9,1.59-.63,1-.71,2.23-.21,3.3l18.33,38.86c.1.22.16.46.16.71v28.51c0,2,1.63,3.63,3.63,3.63s3.63-1.63,3.63-3.63v-28.51c0-.25.06-.49.16-.72l18.57-38.84c.51-1.07.44-2.31-.19-3.31-.63-1-1.72-1.6-2.9-1.6-1.41,0-2.64.79-3.19,2l-14.53,31.71c-.28.67-.87,1.06-1.55,1.06,0,0-.02,0-.03,0-.69,0-1.27-.42-1.52-1.06l-14.35-31.7c-.55-1.22-1.78-2.02-3.13-2.02Z"/>
  </g>
</svg>