<?xml version="1.0" encoding="UTF-8"?>
<svg id="_레이어_1" data-name="레이어 1" xmlns="http://www.w3.org/2000/svg" viewBox="0 0 113.36 100.09">
  <defs>
    <style>
      .cls-1 {
        fill: #fff518;
      }

      .cls-2 {
        fill: #f7f4ed;
      }
    </style>
  </defs>
  <g>
    <g>
      <path class="cls-1" d="M8.09,95.47c-.62,0-1.12-.5-1.12-1.12v-20.1c0-.45.27-.74.7-.74h9.64c.62,0,1.13.51,1.13,1.13h0c0,.62-.51,1.13-1.13,1.13h-6.75c-.62,0-1.12.5-1.12,1.12v5.6c0,.62.5,1.12,1.12,1.12h4.46c.62,0,1.12.5,1.12,1.12h0c0,.62-.5,1.12-1.12,1.12h-4.46c-.62,0-1.12.5-1.12,1.12v7.38c0,.62-.5,1.12-1.12,1.12h-.24Z"/>
      <path class="cls-1" d="M20.73,89.39v-9.76c0-4.02,2.28-6.51,6.15-6.51s6.15,2.49,6.15,6.51v9.76c0,4.02-2.28,6.48-6.15,6.48s-6.15-2.46-6.15-6.48ZM30.65,89.39v-9.87c0-2.6-1.4-4.13-3.76-4.13s-3.76,1.53-3.76,4.13v9.87c0,2.69,1.45,4.22,3.76,4.22s3.76-1.53,3.76-4.22Z"/>
      <path class="cls-1" d="M35.54,89.64v-10.27c0-3.88,2.18-6.25,5.89-6.25,2.84,0,4.81,1.61,5.41,4.32.16.72-.41,1.4-1.15,1.4h0c-.54,0-1-.38-1.14-.91-.42-1.62-1.56-2.54-3.21-2.54-2.1,0-3.39,1.39-3.39,3.76v10.44c0,2.52,1.32,3.99,3.52,3.99,1.53,0,2.65-.88,3.09-2.36.14-.49.57-.84,1.08-.84h.19c.72,0,1.27.68,1.09,1.37-.67,2.59-2.69,4.11-5.48,4.11-3.71,0-5.91-2.38-5.91-6.22Z"/>
      <path class="cls-1" d="M50.26,90.04v-15.31c0-.67.54-1.21,1.21-1.21h0c.67,0,1.21.54,1.21,1.21v15.26c0,2.32,1.26,3.68,3.39,3.68s3.39-1.36,3.39-3.68v-15.26c0-.67.54-1.21,1.21-1.21h0c.67,0,1.21.54,1.21,1.21v15.34c0,3.65-2.15,5.88-5.8,5.88s-5.8-2.23-5.8-5.91Z"/>
      <path class="cls-1" d="M66.04,90.05h0c.58,0,1.08.38,1.23.94.45,1.66,1.75,2.62,3.55,2.62,2.15,0,3.55-1.3,3.55-3.39s-1.26-3.51-4.49-5.26c-3.12-1.58-4.73-3.68-4.73-6.11,0-3.42,2.18-5.63,5.64-5.63,2.51,0,4.45,1.32,5.26,3.56.3.83-.3,1.7-1.18,1.7h-.02c-.53,0-1-.32-1.18-.82-.47-1.33-1.49-2.09-2.91-2.09-1.93,0-3.14,1.13-3.14,3.08,0,1.73,1.13,2.94,4.33,4.61,3.25,1.7,4.89,3.93,4.89,6.73,0,3.62-2.31,5.94-6.05,5.94-2.99,0-5.12-1.57-5.94-4.24-.25-.8.35-1.62,1.19-1.63Z"/>
      <path class="cls-1" d="M84.1,94.34v-17.43c0-.62-.51-1.13-1.13-1.13h-3.17c-.62,0-1.13-.51-1.13-1.13h0c0-.62.51-1.13,1.13-1.13h10.91c.62,0,1.13.51,1.13,1.13h0c0,.62-.51,1.13-1.13,1.13h-3.17c-.62,0-1.13.51-1.13,1.13v17.43c0,.62-.51,1.13-1.13,1.13h-.05c-.62,0-1.13-.51-1.13-1.13Z"/>
      <path class="cls-1" d="M98.66,94.3v-8.07s-.01-.09-.03-.14l-5.19-10.99c-.35-.74.19-1.59,1.01-1.59h0c.44,0,.83.26,1.01.65l4.05,8.95s0,.02.01.03h0c.11.27.49.28.6,0v-.03s4.12-8.96,4.12-8.96c.18-.4.58-.65,1.02-.65h0c.83,0,1.37.86,1.01,1.61l-5.25,10.97s-.03.09-.03.14v8.06c0,.65-.52,1.17-1.17,1.17h0c-.65,0-1.17-.52-1.17-1.17Z"/>
    </g>
    <g>
      <path class="cls-2" d="M8.09,95.47c-.62,0-1.12-.5-1.12-1.12v-20.1c0-.45.27-.74.7-.74h9.64c.62,0,1.13.51,1.13,1.13h0c0,.62-.51,1.13-1.13,1.13h-6.75c-.62,0-1.12.5-1.12,1.12v5.6c0,.62.5,1.12,1.12,1.12h4.46c.62,0,1.12.5,1.12,1.12h0c0,.62-.5,1.12-1.12,1.12h-4.46c-.62,0-1.12.5-1.12,1.12v7.38c0,.62-.5,1.12-1.12,1.12h-.24Z"/>
      <path class="cls-2" d="M20.73,89.39v-9.76c0-4.02,2.28-6.51,6.15-6.51s6.15,2.49,6.15,6.51v9.76c0,4.02-2.28,6.48-6.15,6.48s-6.15-2.46-6.15-6.48ZM30.65,89.39v-9.87c0-2.6-1.4-4.13-3.76-4.13s-3.76,1.53-3.76,4.13v9.87c0,2.69,1.45,4.22,3.76,4.22s3.76-1.53,3.76-4.22Z"/>
      <path class="cls-2" d="M35.54,89.64v-10.27c0-3.88,2.18-6.25,5.89-6.25,2.84,0,4.81,1.61,5.41,4.32.16.72-.41,1.4-1.15,1.4h0c-.54,0-1-.38-1.14-.91-.42-1.62-1.56-2.54-3.21-2.54-2.1,0-3.39,1.39-3.39,3.76v10.44c0,2.52,1.32,3.99,3.52,3.99,1.53,0,2.65-.88,3.09-2.36.14-.49.57-.84,1.08-.84h.19c.72,0,1.27.68,1.09,1.37-.67,2.59-2.69,4.11-5.48,4.11-3.71,0-5.91-2.38-5.91-6.22Z"/>
      <path class="cls-2" d="M50.26,90.04v-15.31c0-.67.54-1.21,1.21-1.21h0c.67,0,1.21.54,1.21,1.21v15.26c0,2.32,1.26,3.68,3.39,3.68s3.39-1.36,3.39-3.68v-15.26c0-.67.54-1.21,1.21-1.21h0c.67,0,1.21.54,1.21,1.21v15.34c0,3.65-2.15,5.88-5.8,5.88s-5.8-2.23-5.8-5.91Z"/>
      <path class="cls-2" d="M66.04,90.05h0c.58,0,1.08.38,1.23.94.45,1.66,1.75,2.62,3.55,2.62,2.15,0,3.55-1.3,3.55-3.39s-1.26-3.51-4.49-5.26c-3.12-1.58-4.73-3.68-4.73-6.11,0-3.42,2.18-5.63,5.64-5.63,2.51,0,4.45,1.32,5.26,3.56.3.83-.3,1.7-1.18,1.7h-.02c-.53,0-1-.32-1.18-.82-.47-1.33-1.49-2.09-2.91-2.09-1.93,0-3.14,1.13-3.14,3.08,0,1.73,1.13,2.94,4.33,4.61,3.25,1.7,4.89,3.93,4.89,6.73,0,3.62-2.31,5.94-6.05,5.94-2.99,0-5.12-1.57-5.94-4.24-.25-.8.35-1.62,1.19-1.63Z"/>
      <path class="cls-2" d="M84.1,94.34v-17.43c0-.62-.51-1.13-1.13-1.13h-3.17c-.62,0-1.13-.51-1.13-1.13h0c0-.62.51-1.13,1.13-1.13h10.91c.62,0,1.13.51,1.13,1.13h0c0,.62-.51,1.13-1.13,1.13h-3.17c-.62,0-1.13.51-1.13,1.13v17.43c0,.62-.51,1.13-1.13,1.13h-.05c-.62,0-1.13-.51-1.13-1.13Z"/>
      <path class="cls-2" d="M98.66,94.3v-8.07s-.01-.09-.03-.14l-5.19-10.99c-.35-.74.19-1.59,1.01-1.59h0c.44,0,.83.26,1.01.65l4.05,8.95s0,.02.01.03h0c.11.27.49.28.6,0v-.03s4.12-8.96,4.12-8.96c.18-.4.58-.65,1.02-.65h0c.83,0,1.37.86,1.01,1.61l-5.25,10.97s-.03.09-.03.14v8.06c0,.65-.52,1.17-1.17,1.17h0c-.65,0-1.17-.52-1.17-1.17Z"/>
    </g>
  </g>
  <circle class="cls-1" cx="34.76" cy="38.69" r="6.26"/>
  <circle class="cls-1" cx="69.45" cy="38.69" r="6.26"/>
  <path class="cls-1" d="M37.6,14.95c-4.78,0-8.66-3.88-8.66-8.66"/>
  <path class="cls-1" d="M37.6,17.11c-5.97,0-10.82-4.85-10.82-10.82,0-1.19.97-2.16,2.16-2.16s2.16.97,2.16,2.16c0,3.59,2.92,6.51,6.51,6.51,1.19,0,2.16.97,2.16,2.16s-.97,2.16-2.16,2.16Z"/>
  <path class="cls-1" d="M68.79,14.95c-4.78,0-8.66-3.88-8.66-8.66"/>
  <path class="cls-1" d="M68.79,17.11c-5.97,0-10.82-4.85-10.82-10.82,0-1.19.97-2.16,2.16-2.16s2.16.97,2.16,2.16c0,3.59,2.92,6.51,6.51,6.51,1.19,0,2.16.97,2.16,2.16s-.97,2.16-2.16,2.16Z"/>
  <g>
    <path class="cls-1" d="M27.3,49.03v-21.96c0-9.04,5.14-14.64,13.85-14.64s13.85,5.6,13.85,14.64v21.96c0,9.04-5.14,14.58-13.85,14.58s-13.85-5.54-13.85-14.58ZM49.62,49.03v-22.22c0-5.86-3.14-9.29-8.47-9.29s-8.47,3.44-8.47,9.29v22.22c0,6.05,3.27,9.49,8.47,9.49s8.47-3.44,8.47-9.49Z"/>
    <path class="cls-1" d="M41.15,63.93c-8.87,0-14.17-5.57-14.17-14.9v-21.96c0-9.37,5.3-14.96,14.17-14.96s14.17,5.59,14.17,14.96v21.96c0,9.33-5.3,14.9-14.17,14.9ZM41.15,12.75c-8.47,0-13.53,5.35-13.53,14.32v21.96c0,8.93,5.06,14.26,13.53,14.26s13.53-5.33,13.53-14.26v-21.96c0-8.97-5.06-14.32-13.53-14.32ZM41.15,58.84c-5.5,0-8.78-3.66-8.78-9.8v-22.22c0-5.93,3.37-9.61,8.78-9.61s8.79,3.59,8.79,9.61v22.22c0,6.14-3.28,9.8-8.79,9.8ZM41.15,17.84c-5.1,0-8.15,3.36-8.15,8.98v22.22c0,5.74,3.05,9.17,8.15,9.17s8.15-3.34,8.15-9.17v-22.22c0-5.7-2.97-8.98-8.15-8.98Z"/>
  </g>
  <g>
    <path class="cls-1" d="M60.62,49.61v-23.11c0-8.72,4.9-14.07,13.24-14.07,6.4,0,10.83,3.63,12.17,9.71.36,1.62-.92,3.15-2.58,3.15h0c-1.23,0-2.25-.86-2.56-2.04-.94-3.65-3.51-5.72-7.22-5.72-4.72,0-7.62,3.12-7.62,8.47v23.49c0,5.67,2.96,8.98,7.92,8.98,3.44,0,5.97-1.98,6.95-5.31.33-1.14,1.42-1.89,2.6-1.89h0c1.8,0,3.11,1.73,2.61,3.46-1.6,5.61-6.08,8.89-12.23,8.89-8.35,0-13.3-5.35-13.3-14.01Z"/>
    <path class="cls-1" d="M73.93,63.93c-8.4,0-13.62-5.49-13.62-14.32v-23.11c0-9.01,5.07-14.39,13.56-14.39,6.54,0,11.09,3.63,12.48,9.96.19.85-.02,1.73-.57,2.42-.57.71-1.41,1.11-2.31,1.11-1.34,0-2.52-.94-2.87-2.28-.91-3.54-3.37-5.48-6.91-5.48-4.57,0-7.3,3.05-7.3,8.15v23.49c0,5.5,2.77,8.66,7.6,8.66,3.27,0,5.7-1.85,6.64-5.08.37-1.25,1.56-2.11,2.91-2.11.96,0,1.84.44,2.42,1.21.58.77.76,1.74.5,2.66-1.65,5.79-6.22,9.12-12.53,9.12ZM73.87,12.75c-8.09,0-12.93,5.14-12.93,13.75v23.11c0,8.57,4.85,13.69,12.99,13.69,6.01,0,10.35-3.15,11.92-8.66.21-.73.07-1.5-.39-2.1-.46-.61-1.16-.95-1.91-.95-1.07,0-2.01.68-2.3,1.66-1.03,3.52-3.68,5.54-7.25,5.54-5.16,0-8.24-3.47-8.24-9.29v-23.49c0-5.5,2.97-8.79,7.94-8.79,3.8,0,6.55,2.17,7.53,5.96.27,1.06,1.2,1.8,2.25,1.8.71,0,1.37-.32,1.82-.87.43-.54.59-1.22.45-1.89-1.33-6.01-5.65-9.46-11.86-9.46Z"/>
  </g>
</svg>